<?xml version="1.0" standalone="no"?>
<!DOCTYPE svg PUBLIC "-//W3C//DTD SVG 20010904//EN"
 "http://www.w3.org/TR/2001/REC-SVG-20010904/DTD/svg10.dtd">
<svg version="1.0" xmlns="http://www.w3.org/2000/svg"
 width="466.000000pt" height="535.000000pt" viewBox="0 0 466.000000 535.000000"
 preserveAspectRatio="xMidYMid meet">

<g transform="translate(0.000000,535.000000) scale(0.100000,-0.100000)"
fill="#000000" stroke="none">
<path d="M379 4516 c12 -16 10 -40 -5 -53 -9 -9 -14 -9 -18 3 -3 8 1 17 9 20
16 7 21 24 6 24 -14 0 -126 -181 -174 -283 -174 -366 -229 -782 -157 -1197 25
-143 96 -353 173 -505 46 -93 130 -227 154 -247 10 -8 14 -8 10 -1 -4 6 -2 15
4 18 5 4 7 14 4 24 -11 25 -15 101 -5 101 4 0 6 9 3 20 -3 11 -9 18 -13 15 -9
-6 -23 25 -15 33 3 3 5 -1 5 -8 0 -7 3 -11 6 -8 3 3 -2 23 -11 44 -16 39 -29
86 -65 239 -32 135 -45 339 -32 505 11 137 44 312 78 410 9 25 15 55 15 67 0
11 6 24 14 27 16 6 21 66 6 66 -4 0 -7 -12 -4 -27 l3 -28 -10 25 c-9 19 -8 27
4 36 14 10 16 49 16 283 0 251 -1 271 -17 271 -16 1 -16 2 -2 13 28 22 47 124
23 124 -8 0 -10 -5 -5 -11z m-9 -2196 c6 -11 7 -20 3 -20 -5 0 -14 9 -21 20
-7 11 -8 20 -2 20 5 0 14 -9 20 -20z"/>
<path d="M1071 3178 c-1 -4 9 -51 20 -105 23 -102 72 -239 117 -327 30 -60
136 -219 172 -259 70 -80 130 -133 149 -133 26 0 26 5 4 22 -13 10 -14 13 -4
14 11 0 11 3 0 16 -9 11 -9 18 -2 22 6 4 14 24 18 45 6 30 4 37 -9 37 -9 0
-16 5 -16 10 0 6 7 10 15 10 10 0 14 8 12 23 -3 19 -16 31 -91 80 -79 52 -188
160 -252 253 -36 51 -86 155 -110 229 -12 39 -22 67 -23 63z m469 -612 c0 -3
-4 -8 -10 -11 -5 -3 -10 -1 -10 4 0 6 5 11 10 11 6 0 10 -2 10 -4z"/>
<path d="M4250 3130 c0 -5 5 -10 11 -10 5 0 7 5 4 10 -3 6 -8 10 -11 10 -2 0
-4 -4 -4 -10z"/>
<path d="M4250 3099 c0 -4 5 -11 10 -14 6 -3 10 -14 10 -23 0 -15 -2 -15 -10
-2 -8 12 -10 11 -7 -5 1 -11 5 -24 9 -30 3 -5 4 -29 3 -52 -2 -25 1 -43 7 -43
5 0 8 -6 5 -14 -3 -7 0 -22 8 -32 16 -24 69 -209 97 -339 17 -82 21 -137 22
-305 0 -127 -4 -233 -13 -280 -17 -103 -67 -294 -81 -315 -16 -24 -50 -158
-45 -176 4 -13 1 -21 -10 -25 -11 -5 -13 -9 -5 -14 15 -10 19 -63 21 -347 1
-208 -1 -248 -14 -263 -8 -10 -13 -21 -10 -24 6 -6 -12 -10 -29 -7 -13 2 -9
-6 9 -20 11 -10 14 -10 9 -1 -4 6 -3 12 1 12 19 0 155 198 147 212 -3 5 0 8 5
8 28 0 152 294 202 480 24 87 55 294 64 430 18 247 -78 676 -204 915 -94 178
-119 217 -134 208 -6 -3 -7 -1 -3 6 9 15 -28 68 -48 68 -9 0 -16 -4 -16 -8z"/>
<path d="M3072 3035 c9 -7 13 -37 14 -90 1 -73 -1 -81 -20 -87 -18 -5 -16 -6
8 -7 28 -1 29 -2 10 -16 -17 -13 -17 -14 -2 -15 9 0 20 -5 24 -11 4 -8 -1 -9
-17 -5 -23 7 -23 6 -6 -8 11 -8 26 -12 35 -9 11 5 13 3 7 -7 -6 -10 -4 -12 8
-7 10 4 16 2 14 -6 -1 -7 8 -12 20 -11 12 0 20 -3 17 -7 -2 -4 27 -30 65 -58
70 -52 153 -141 208 -221 38 -56 98 -176 107 -214 4 -15 9 -26 12 -23 10 9
-24 140 -60 234 -49 130 -91 205 -193 353 -45 64 -194 210 -215 210 -11 0 -17
4 -14 8 2 4 -4 8 -15 8 -16 0 -17 -3 -7 -11z"/>
<path d="M390 2350 c0 -5 5 -10 11 -10 5 0 7 5 4 10 -3 6 -8 10 -11 10 -2 0
-4 -4 -4 -10z"/>
<path d="M3581 2204 c0 -11 3 -14 6 -6 3 7 2 16 -1 19 -3 4 -6 -2 -5 -13z"/>
<path d="M436 2201 c-4 -5 -2 -12 3 -15 5 -4 12 -2 15 3 4 5 2 12 -3 15 -5 4
-12 2 -15 -3z"/>
<path d="M4252 863 c-6 -2 -10 -9 -6 -14 8 -14 21 -11 21 6 0 8 -1 15 -1 14
-1 0 -7 -3 -14 -6z"/>
</g>
</svg>
